HIERARCHY
ROOT Hips
{
  OFFSET 7.91463 99.231 23.7306
  CHANNELS 6 Xposition Yposition Zposition Zrotation Xrotation Yrotation
  JOINT ToSpine
  {
    OFFSET -0.0105055 1.38907 -7.13956
    CHANNELS 3 Zrotation Xrotation Yrotation
    JOINT Spine
    {
      OFFSET 0.0105055 10 1
      CHANNELS 3 Zrotation Xrotation Yrotation
      JOINT Spine1
      {
        OFFSET 0 12 1.60637
        CHANNELS 3 Zrotation Xrotation Yrotation
        JOINT Neck
        {
          OFFSET 0 27 2.26658
          CHANNELS 3 Zrotation Xrotation Yrotation
          JOINT Head
          {
            OFFSET 0 9 2.12705
            CHANNELS 3 Zrotation Xrotation Yrotation
            End Site
            {
              OFFSET 0 11 2
            }
          }
        }
        JOINT LeftShoulder
        {
          OFFSET 8 19.6109 2.86452
          CHANNELS 3 Zrotation Xrotation Yrotation
          JOINT LeftArm
          {
            OFFSET 12 1 0.681055
            CHANNELS 3 Zrotation Xrotation Yrotation
            JOINT LeftForeArm
            {
              OFFSET 19 0 -1.52608
              CHANNELS 3 Zrotation Xrotation Yrotation
              JOINT LeftHand
              {
                OFFSET 23 0 0
                CHANNELS 3 Zrotation Xrotation Yrotation
                End Site
                {
                  OFFSET 10 0 0
                }
              }
            }
          }
        }
        JOINT RightShoulder
        {
          OFFSET -8 19.6109 2.86452
          CHANNELS 3 Zrotation Xrotation Yrotation
          JOINT RightArm
          {
            OFFSET -12 1 0.681055
            CHANNELS 3 Zrotation Xrotation Yrotation
            JOINT RightForeArm
            {
              OFFSET -19 0 -1.52608
              CHANNELS 3 Zrotation Xrotation Yrotation
              JOINT RightHand
              {
                OFFSET -23 0 0
                CHANNELS 3 Zrotation Xrotation Yrotation
                End Site
                {
                  OFFSET -10 0 0
                }
              }
            }
          }
        }
      }
    }
  }
  JOINT LeftUpLeg
  {
    OFFSET 9 -7.17245 0
    CHANNELS 3 Zrotation Xrotation Yrotation
    JOINT LeftLeg
    {
      OFFSET 0 -44.1113 0
      CHANNELS 3 Zrotation Xrotation Yrotation
      JOINT LeftFoot
      {
        OFFSET 0 -36.1829 0
        CHANNELS 3 Zrotation Xrotation Yrotation
        JOINT LeftToeBase
        {
          OFFSET 0 -4.84184 13
          CHANNELS 3 Zrotation Xrotation Yrotation
          End Site
          {
            OFFSET 0 1 6
          }
        }
      }
    }
  }
  JOINT RightUpLeg
  {
    OFFSET -9 -7.17245 0
    CHANNELS 3 Zrotation Xrotation Yrotation
    JOINT RightLeg
    {
      OFFSET 0 -44.0551 0
      CHANNELS 3 Zrotation Xrotation Yrotation
      JOINT RightFoot
      {
        OFFSET 0 -36.1469 0
        CHANNELS 3 Zrotation Xrotation Yrotation
        JOINT RightToeBase
        {
          OFFSET 0 -4.92256 13
          CHANNELS 3 Zrotation Xrotation Yrotation
          End Site
          {
            OFFSET 0 1 6
          }
        }
      }
    }
  }
}
MOTION
Frames:	21
Frame Time:	0.0333333
7.91622 99.226 23.7306 0.449421 -1.90582 -2.2031 0 0 0 2.81595 0.890792 0.0465308 -5.01611 2.26969 0.750036 6.62631 -1.16987 0.203627 -4.82697 3.66476 3.30487 -30.3358 2.99496 -4.71425 -43.6258 30.6007 -12.515 -5.39665 -12.4669 -8.07241 -8.22779 0.125498 -1.74474 26.0097 5.45862 13.354 52.1373 19.6051 6.74154 3.93647 -0.352976 10.4861 1.75408 0.0577055 3.77105 0.883681 3.98776 7.36136 -1.58819 6.21685 -8.24655 6.52526 -7.04884 0.402946 0.733806 -3.64334 -2.38311 -2.67177 2.78322 -7.78971 0.711041 8.4183 3.36427 -10.3336 -5.81838 -0.526663 3.39736 -12.552 -2.24533 
7.92432 99.2393 23.7306 0.444315 -1.92479 -2.24147 0 0 0 2.65292 0.887142 0.151841 -4.72638 2.29282 0.802687 6.45818 -1.15157 0.23092 -4.65591 3.59761 3.23897 -30.4062 3.00622 -4.72773 -43.5644 30.6599 -12.737 -5.48127 -12.5157 -7.89647 -8.17968 0.12202 -1.70631 25.7602 5.40036 13.2991 52.3219 19.5541 6.6558 3.74835 0.212997 10.6409 1.54194 0.0487951 3.60309 0.754457 3.97744 7.14423 -1.31707 6.26538 -8.04952 5.94272 -7.48156 0.385149 0.655157 -2.72535 -2.17035 -2.64264 2.78011 -7.7123 0.603693 8.34656 3.29238 -10.5475 -5.67993 -0.524478 3.32476 -12.3052 -1.68597 
7.92105 99.3027 23.7263 0.462494 -1.89534 -2.1933 0 0 0 1.86832 0.826775 0.529164 -3.43585 2.24605 0.946324 5.66895 -0.56715 0.220259 -4.2018 2.7897 2.89171 -31.5581 3.21019 -5.02044 -42.5377 31.2341 -13.1196 -5.7048 -12.9349 -7.57575 -7.95269 0.11362 -1.63384 25.1836 5.14021 12.7772 52.3168 20.5669 6.06357 3.48369 0.804399 11.6006 1.15961 0.0318319 3.15959 0.766581 4.03716 7.13052 -1.26204 6.13504 -8.46927 4.14602 -8.63606 0.315218 0.245574 0.537036 -1.16328 -2.7234 2.74207 -7.75193 0.675863 8.41545 4.35399 -11.1762 -4.81709 -0.47091 3.49813 -12.8882 -3.36579 
7.89305 99.2395 23.7201 0.535341 -1.82013 -2.18226 0 0 0 1.50974 0.62238 0.775163 -3.04991 2.40977 1.10619 5.76301 -0.353949 -0.114027 -4.78028 2.36463 2.73111 -31.7027 3.2841 -5.18244 -42.5583 30.9766 -13.4082 -5.68737 -12.5023 -7.17978 -7.57663 0.111253 -1.68083 24.7684 4.9286 12.3144 52.6832 19.8285 6.68147 3.53697 1.34644 10.7138 1.24386 0.0332207 3.04879 0.794185 3.75743 7.24939 -1.39152 6.62145 -8.54952 4.59187 -8.85764 0.355755 0.338004 -0.019251 -1.41125 -2.73425 2.78441 -7.64478 0.792646 8.19011 4.58652 -11.6705 -4.14859 -0.424228 3.85509 -14.4008 -4.60582 
7.92446 99.2468 23.7249 0.329135 -1.64909 -2.79112 0 0 0 2.20519 0.362793 1.01371 -3.61364 2.51103 1.4524 6.00367 -0.224445 -0.208356 -4.95115 2.23642 2.75235 -31.6208 3.27705 -5.18244 -42.3907 31.0962 -13.5262 -5.87223 -13.4141 -6.93258 -7.38073 0.126082 -1.9546 24.9102 5.01417 12.5159 52.6821 19.5559 6.58585 3.5814 0.736208 10.7911 1.41991 0.0339065 2.96296 0.967802 3.68182 7.41482 -1.4826 6.5478 -8.2433 4.48702 -8.86005 0.34784 0.184642 -0.208008 -0.72055 -2.52729 2.38468 -7.35836 0.586348 8.51348 4.58703 -11.3113 -4.60216 -0.456284 3.62007 -13.405 -3.72567 
7.90184 99.255 23.6679 0.213141 -1.64192 -2.91336 0 0 0 2.25758 0.564724 1.08494 -3.49345 2.29697 1.48666 5.6069 -0.196201 -0.0451791 -4.65954 2.33879 2.72968 -31.7678 3.28021 -5.15727 -42.397 31.0483 -13.4112 -5.87804 -13.5367 -7.07031 -6.84533 0.108789 -1.8148 24.8364 4.98169 12.4491 52.6386 19.5014 6.5929 3.4741 1.05176 10.7573 1.75977 0.0348559 2.93803 1.14524 3.52952 7.51954 -1.50285 6.88262 -8.16886 4.6911 -8.9061 0.365496 0.274872 -0.121947 -1.12119 -2.33152 2.38819 -7.13355 0.51236 8.3058 4.68073 -11.122 -4.25788 -0.41453 3.70919 -13.766 -4.23848 
7.90097 99.2696 23.6435 0.264785 -1.70327 -2.92832 0 0 0 2.03896 0.716158 1.11303 -3.29694 2.17474 1.49473 5.66127 -0.309956 -0.0659653 -4.60482 2.63147 2.71701 -31.6476 3.29882 -5.23372 -42.5837 30.9936 -13.4029 -5.85523 -13.3738 -6.95096 -6.05155 0.0803792 -1.52375 24.8835 5.00354 12.4953 52.5922 19.7376 6.5192 3.54975 0.880232 10.9624 1.58321 0.0360118 2.86028 1.14592 3.71246 7.62881 -1.70204 6.56592 -8.31843 4.77862 -8.73187 0.365069 0.237393 -0.230413 -0.937108 -2.40031 2.30616 -7.20666 0.418735 8.61772 4.44779 -11.1237 -4.78457 -0.465978 3.49762 -12.9194 -3.1372 
7.98702 99.2359 23.6479 0.359717 -1.53801 -2.95521 0 0 0 2.2275 0.402281 1.1193 -3.54233 2.33363 1.54072 5.63428 -0.340763 -0.0481199 -4.65667 2.75451 2.74183 -31.9509 3.31635 -5.21031 -42.2419 31.1381 -13.4291 -5.92768 -13.7866 -6.95758 -5.34446 0.0640197 -1.36965 24.7742 4.99874 12.5334 52.7274 19.6171 6.51754 3.58155 0.907992 10.6789 1.27964 0.0372988 3.17643 0.863149 3.44664 7.31884 -1.43561 6.69587 -7.84259 4.72596 -8.77862 0.362946 0.313602 -0.40899 -1.21812 -2.58893 2.13046 -7.28338 0.582051 8.58342 4.7221 -11.4982 -4.39714 -0.443114 3.74256 -13.9145 -3.76688 
7.97694 99.2493 23.5808 0.474118 -1.59436 -2.96868 0 0 0 1.87574 0.705179 1.10261 -3.2665 2.10303 1.4821 5.46653 -0.574718 0.0945318 -4.23894 3.12437 2.73031 -31.8492 3.29 -5.16442 -42.2376 31.5827 -13.3028 -6.09767 -14.63 -7.44585 -4.57515 0.04179 -1.0471 24.784 5.01274 12.5729 52.6196 19.7284 6.52936 3.5401 0.907293 10.9448 1.67747 0.03869 2.89663 0.749498 3.51156 7.26804 -1.41985 6.61857 -7.87577 4.41191 -8.8534 0.341746 0.262662 -0.0351236 -1.08978 -2.716 2.05159 -7.35219 0.543652 8.76787 4.96382 -11.223 -4.43187 -0.435303 3.74737 -13.9278 -4.46101 
8.03877 99.2737 23.609 0.383919 -1.56331 -2.87248 0 0 0 2.14386 0.563416 1.06296 -3.38176 2.18612 1.46445 5.51834 -0.455637 0.00741629 -4.36799 3.03281 2.69514 -31.8979 3.31403 -5.21638 -42.0989 32.0383 -13.2704 -6.23042 -15.1475 -7.60925 -3.59876 0.0228156 -0.720081 24.7246 4.97552 12.484 52.7271 19.6213 6.51474 3.52997 0.981854 10.7722 1.73011 0.0400908 3.00686 0.839605 3.55025 7.31308 -1.50275 6.43933 -8.01705 4.50526 -8.9406 0.352371 0.232642 0.55433 -1.1012 -2.69676 2.06925 -7.44392 0.552088 8.78434 4.76717 -11.0327 -4.83662 -0.467039 3.48641 -12.8467 -3.70746 
8.03139 99.2717 23.5763 0.441408 -1.68068 -2.89611 0 0 0 1.99899 0.82588 1.10567 -3.29186 2.03038 1.49635 5.59306 -0.517317 -0.00684739 -4.45203 3.16728 2.72536 -31.8311 3.32426 -5.25852 -42.2085 32.1005 -13.3133 -6.24508 -15.1465 -7.54708 -2.54731 0.00586248 -0.26618 24.7248 4.97023 12.467 52.645 20.0242 6.49733 3.76073 0.352056 10.8732 1.66267 0.0414558 3.06775 0.762863 3.66891 7.28267 -1.49197 6.43163 -7.9103 4.57519 -8.80307 0.35236 0.291676 0.261864 -1.2798 -2.69292 2.16729 -7.39288 0.529528 8.69766 4.80758 -11.548 -4.35649 -0.440959 3.70462 -13.7566 -4.14838 
8.01854 99.268 23.5576 0.368225 -1.69152 -2.95036 0 0 0 2.03689 0.975986 1.10479 -3.26204 1.87944 1.47866 5.56079 -0.596635 -0.0241606 -4.31243 3.27806 2.66424 -31.7442 3.31212 -5.24654 -42.3061 32.2725 -13.2695 -6.33528 -15.4188 -7.61066 -1.46958 -0.000836866 0.0526911 24.677 4.99259 12.5614 52.7976 19.7211 6.38472 3.54214 1.14555 10.7675 1.44768 0.0427163 3.28372 0.863759 3.59453 7.36078 -1.49326 6.65106 -8.02038 4.48184 -8.9549 0.351122 0.198482 0.287671 -0.897383 -2.59539 2.22116 -7.29496 0.479512 8.60262 4.62219 -11.4477 -4.565 -0.457672 3.67443 -13.6338 -3.57597 
8.05671 99.2676 23.5698 0.413283 -1.58244 -3.00096 0 0 0 2.08931 0.989732 1.06755 -3.40575 1.63685 1.46366 5.84176 -0.418819 -0.0740649 -4.67538 3.18047 2.7932 -31.5331 3.28564 -5.22527 -42.685 32.1586 -12.9386 -6.3426 -15.7074 -7.82055 -0.535488 -0.00168537 0.434452 24.6427 5.01222 12.6407 52.9652 19.7191 6.25199 3.67739 0.367083 10.8832 1.75751 0.043841 2.94888 0.752498 3.4723 7.24333 -1.39157 6.67815 -7.82595 4.21232 -9.03578 0.33299 0.152537 0.809465 -0.833291 -2.66699 2.10414 -7.28642 0.435927 8.65071 4.81509 -11.0569 -4.66976 -0.452321 3.73756 -13.8958 -4.43808 
8.05248 99.2889 23.5215 0.416456 -1.55371 -2.94902 0 0 0 2.14361 1.02559 1.02788 -3.47632 1.59307 1.44262 5.75874 -0.440149 -0.0391392 -4.4831 3.30708 2.75837 -31.6173 3.28707 -5.20972 -42.5359 32.2069 -13.0284 -6.33953 -15.7489 -7.7857 0.549525 0.00438278 0.963323 24.7266 5.04994 12.7192 52.8675 19.7717 6.25043 3.67952 0.490083 10.8078 1.56874 0.044731 3.00458 0.756191 3.46535 7.18133 -1.33027 6.54465 -7.89129 4.01444 -9.00171 0.316013 0.26472 0.656972 -1.25796 -2.67703 2.01889 -7.32999 0.440162 8.6682 4.74543 -10.9737 -4.66331 -0.447673 3.7345 -13.8662 -4.3183 
8.06982 99.3027 23.5498 0.259369 -1.43043 -2.98469 0 0 0 2.47273 0.798987 0.989717 -3.59368 1.68146 1.41571 5.66013 -0.368792 -0.0341075 -4.46005 3.21184 2.729 -31.6692 3.27137 -5.15638 -42.6185 32.0875 -12.9258 -6.35572 -15.8584 -7.77948 1.57928 0.0175443 1.27325 24.6683 5.07257 12.82 52.9646 19.4271 6.21615 3.55501 0.741798 10.6605 1.84847 0.0452463 2.82256 0.939674 3.335 7.30575 -1.44463 6.5825 -8.01737 4.2786 -8.84118 0.330933 0.145411 0.332233 -0.689201 -2.55334 1.93008 -7.30169 0.436269 8.62465 4.64292 -10.6119 -5.01691 -0.465747 3.43116 -12.6259 -3.41209 
8.03493 99.2672 23.5263 0.267849 -1.45846 -2.93415 0 0 0 2.37938 0.875339 0.978345 -3.57242 1.62076 1.38868 5.69128 -0.325518 0.0157682 -4.54912 3.2494 2.81236 -31.585 3.27767 -5.19224 -42.7687 31.8914 -12.8866 -6.3211 -15.7801 -7.74595 2.61022 0.0384702 1.68298 24.6473 5.06351 12.8017 53.0045 19.4521 6.20452 3.62653 0.520785 10.6478 1.75523 0.0455739 2.92581 1.02396 3.2198 7.42774 -1.49546 6.8967 -8.06492 4.15306 -9.06933 0.329586 0.225514 0.44055 -1.04619 -2.47154 2.05874 -7.16846 0.495502 8.39288 4.65577 -11.2182 -4.36538 -0.429267 3.75854 -13.9889 -4.4109 
8.03532 99.2866 23.5087 0.331902 -1.39248 -2.9648 0 0 0 2.42776 0.646914 0.992381 -3.65757 1.91004 1.43 5.59459 -0.4957 0.0233661 -4.38629 3.26266 2.74307 -31.6187 3.28333 -5.19949 -42.6118 31.994 -13.034 -6.36167 -15.7492 -7.8369 3.72992 0.0710416 2.17786 24.7391 5.07363 12.7881 52.7913 19.5659 6.31088 3.63026 0.493511 10.7217 1.82432 0.048699 2.90202 0.899675 3.21924 7.28223 -1.40809 6.70515 -7.89654 4.20751 -8.94748 0.329115 0.272925 0.375192 -1.22879 -2.52782 1.92866 -7.16054 0.422021 8.47405 4.6007 -11.0858 -4.44989 -0.431764 3.60454 -13.3331 -3.98873 
8.03389 99.2778 23.5205 0.241381 -1.40913 -3.05717 0 0 0 2.68454 0.844631 0.961927 -3.89935 1.65084 1.43799 5.87542 -0.440311 -0.0678437 -4.58839 3.22219 2.78765 -31.2709 3.25341 -5.20015 -43.0741 31.878 -12.8296 -6.3659 -15.7364 -7.86853 4.71046 0.106387 2.59672 24.8084 5.09307 12.8153 52.8699 19.5076 6.17578 3.56921 0.675991 10.7501 1.9549 0.0530236 3.05874 1.01384 3.23691 7.4079 -1.54679 6.7182 -7.98965 4.68302 -8.75617 0.358812 0.174265 -0.0484634 -0.715648 -2.47614 1.95732 -7.16095 0.420849 8.50152 4.73558 -10.6813 -4.79009 -0.448237 3.43605 -12.6406 -3.67743 
8.01371 99.2933 23.5102 0.284948 -1.40376 -3.0636 0 0 0 2.53044 0.862847 0.998673 -3.70105 1.63377 1.44109 5.55705 -0.638765 0.0589268 -4.33581 3.64877 2.76007 -31.4219 3.26389 -5.19324 -42.7773 32.1351 -13.1117 -6.49782 -16.2121 -7.57087 5.51784 0.139261 2.87761 24.719 5.06802 12.7804 52.8508 19.7499 6.14144 3.63471 0.622326 10.755 1.64585 0.0567456 3.23643 0.972563 3.23382 7.34951 -1.46175 6.72075 -7.95798 4.26121 -8.86254 0.330444 0.198683 0.231384 -0.887407 -2.46496 1.92577 -7.14957 0.399844 8.42483 4.78313 -10.9036 -4.51934 -0.43113 3.53856 -13.0521 -3.99559 
7.94929 99.2624 23.4937 0.288663 -1.31133 -3.09594 0 0 0 2.4903 0.797987 1.02864 -3.7319 1.63288 1.46906 5.83206 -0.754924 -0.0904113 -4.73509 3.75154 2.79334 -31.227 3.27943 -5.27972 -42.9571 32.1432 -13.0523 -6.44767 -15.9229 -7.68345 6.45729 0.198601 3.52483 24.7009 5.03836 12.695 52.8482 19.6885 6.29845 3.6525 0.577642 10.6538 1.96587 0.0580761 3.12398 1.0885 3.02329 7.4995 -1.59229 6.96171 -7.97379 4.47475 -9.01825 0.352906 0.25601 0.421534 -1.16895 -2.40982 1.82421 -7.03921 0.49065 8.42356 4.78479 -11.3655 -4.0661 -0.405987 3.77607 -14.0649 -4.38726 
8.00296 99.2771 23.5316 0.270228 -1.4101 -3.1052 0 0 0 2.78146 0.876447 0.999378 -3.95521 1.65757 1.49224 5.96977 -0.701124 -0.170321 -5.12379 3.57787 2.85017 -31.1349 3.28527 -5.31689 -43.0571 32.125 -13.0806 -6.45095 -15.9225 -7.57716 7.17037 0.242537 3.86899 24.5707 4.99858 12.6329 53.0296 19.675 6.3185 3.64022 0.699377 10.6459 1.93461 0.0544458 3.233 0.997399 3.30354 7.39945 -1.53762 6.59287 -7.76101 4.62413 -8.7976 0.355924 0.243314 0.0568269 -1.03465 -2.48746 1.87019 -7.17588 0.412976 8.68656 4.74401 -10.6618 -4.8256 -0.444312 3.53346 -13.0231 -3.71861 
